<svg xmlns="http://www.w3.org/2000/svg" aria-labelledby="logo-title-id" viewBox="0 0 126 25"><title id="logo-title-id">Goodevent logo</title><g fill="none" fill-rule="evenodd"><path fill="#000" d="M6.7 4.3a7 7 0 0 1 3.3.8 5.7 5.7 0 0 1 2.4 2.3 7 7 0 0 1 .8 3.5 7 7 0 0 1-.8 3.6 5.7 5.7 0 0 1-2.4 2.2c-1 .6-2 .8-3.3.8s-2.4-.2-3.4-.8A5.8 5.8 0 0 1 1 14.4 7 7 0 0 1 .1 11 7 7 0 0 1 1 7.4a5.8 5.8 0 0 1 2.3-2.3 7 7 0 0 1 3.4-.8zm0 2.3c-.7 0-1.3.2-2 .5-.5.3-1 .8-1.3 1.4a5 5 0 0 0-.5 2.4c0 1 .2 1.8.5 2.4.4.6.8 1.1 1.4 1.4a4 4 0 0 0 1.9.5 4 4 0 0 0 1.9-.5c.5-.3 1-.8 1.4-1.4a5 5 0 0 0 .5-2.4 5 5 0 0 0-.5-2.4c-.4-.6-.9-1-1.4-1.4a4 4 0 0 0-2-.5zm15-2.3a7 7 0 0 1 3.3.8 5.7 5.7 0 0 1 2.4 2.3 7 7 0 0 1 .8 3.5 7 7 0 0 1-.8 3.6 5.7 5.7 0 0 1-2.4 2.2c-1 .6-2 .8-3.3.8s-2.4-.2-3.4-.8a5.8 5.8 0 0 1-2.3-2.3A7 7 0 0 1 15 11a7 7 0 0 1 .9-3.5 5.8 5.8 0 0 1 2.3-2.3 7 7 0 0 1 3.4-.8zm0 2.3c-.7 0-1.3.2-2 .5-.5.3-1 .8-1.3 1.4a5 5 0 0 0-.5 2.4c0 1 .1 1.8.5 2.4.3.6.8 1.1 1.4 1.4a4 4 0 0 0 1.9.5c.7 0 1.3-.2 1.9-.5.5-.3 1-.8 1.3-1.4a5 5 0 0 0 .6-2.4 5 5 0 0 0-.6-2.4c-.3-.6-.8-1-1.3-1.4a4 4 0 0 0-2-.5zm15-2.3a7 7 0 0 1 3.3.8 5.7 5.7 0 0 1 2.3 2.3 7 7 0 0 1 .9 3.5 7 7 0 0 1-.9 3.6 5.7 5.7 0 0 1-2.3 2.2c-1 .6-2.1.8-3.3.8s-2.4-.2-3.4-.8a5.8 5.8 0 0 1-2.3-2.3A7 7 0 0 1 30 11a7 7 0 0 1 .9-3.5 5.8 5.8 0 0 1 2.3-2.3 7 7 0 0 1 3.4-.8zm0 2.3a4 4 0 0 0-2 .5c-.5.3-1 .8-1.3 1.4a5 5 0 0 0-.6 2.4c0 1 .2 1.8.6 2.4.3.6.8 1.1 1.4 1.4a4 4 0 0 0 1.9.5c.6 0 1.3-.2 1.8-.5.6-.3 1-.8 1.4-1.4a5 5 0 0 0 .6-2.4 5 5 0 0 0-.6-2.4c-.3-.6-.8-1-1.4-1.4a4 4 0 0 0-1.8-.5zm14.2-2.3a5 5 0 0 1 3 .9c.8.6 1.4 1.3 1.7 2.3V0h2.7v17.3h-2.7v-3a4.5 4.5 0 0 1-1.7 2.3 5 5 0 0 1-3 .8 5.4 5.4 0 0 1-5-3c-.5-1-.8-2.2-.8-3.6 0-1.3.3-2.5.8-3.5a5.4 5.4 0 0 1 5-3zm.8 2.4c-1.2 0-2.1.3-2.8 1.1-.7.8-1 1.8-1 3.1s.3 2.4 1 3.1c.7.8 1.6 1.2 2.8 1.2.8 0 1.4-.2 2-.5a3.7 3.7 0 0 0 1.4-1.5c.4-.7.6-1.4.6-2.3 0-.8-.2-1.6-.6-2.2a3.7 3.7 0 0 0-1.4-1.5c-.6-.4-1.2-.5-2-.5zm21.8 3.6l-.1 1.2h-10c.1 1.3.5 2.3 1.2 2.9.7.6 1.5 1 2.5 1 .9 0 1.7-.3 2.3-.7a2.8 2.8 0 0 0 1.1-1.8h2.8a5.5 5.5 0 0 1-1 2.4c-.6.7-1.3 1.2-2.1 1.6a7 7 0 0 1-3 .6c-1.2 0-2.3-.2-3.3-.8-1-.5-1.7-1.3-2.2-2.2-.6-1-.8-2.2-.8-3.6 0-1.3.2-2.5.8-3.5.5-1 1.3-1.7 2.2-2.3 1-.5 2-.8 3.3-.8 1.3 0 2.4.3 3.3.8a5.4 5.4 0 0 1 2.2 2.2c.5.9.8 1.9.8 3zm-2.7 0a4 4 0 0 0-.5-2.2A3 3 0 0 0 69 7a4 4 0 0 0-1.8-.4c-1 0-1.9.3-2.6 1-.7.6-1 1.5-1.1 2.7h7.3zm10.5 4.3L85 4.5h2.8l-4.9 12.9h-3.2l-5-13h3l3.6 10.2zm20.4-4.3v1.2h-10c0 1.3.4 2.3 1.1 2.9.7.6 1.5 1 2.6 1 .8 0 1.6-.3 2.2-.7a2.8 2.8 0 0 0 1.1-1.8h2.9a5.5 5.5 0 0 1-1 2.4c-.6.7-1.3 1.2-2.2 1.6a7 7 0 0 1-3 .6c-1.2 0-2.3-.2-3.2-.8-1-.5-1.7-1.3-2.3-2.2-.5-1-.8-2.2-.8-3.6 0-1.3.3-2.5.8-3.5.6-1 1.3-1.7 2.3-2.3 1-.5 2-.8 3.3-.8 1.2 0 2.3.3 3.3.8a5.4 5.4 0 0 1 2.1 2.2c.6.9.8 1.9.8 3zm-2.7 0a4 4 0 0 0-.4-2.2A3 3 0 0 0 97.3 7a4 4 0 0 0-1.8-.4c-1 0-2 .3-2.6 1-.7.6-1.1 1.5-1.2 2.7H99zm12.5-6c1.5 0 2.7.5 3.6 1.4.9 1 1.3 2.4 1.3 4.2v7.5h-2.6V10c0-1.1-.3-2-1-2.6-.5-.7-1.3-1-2.4-1-1 0-1.9.4-2.5 1-.6.7-1 1.7-1 3v6.9h-2.6v-13h2.6v3c.4-1 1-1.8 1.8-2.3a5 5 0 0 1 2.8-.8zM126 15v2.3h-1.6c-1.4 0-2.5-.4-3.2-1-.7-.7-1-1.8-1-3.3V6.8h-1.9V4.5h1.9V1.3h2.7v3.2h3v2.3h-3V13c0 .8 0 1.3.4 1.5.2.3.7.5 1.4.5h1.3z"/><path fill="#000" d="M3.9 21.6l.7.5a4 4 0 0 0 1.9.5 4 4 0 0 0 1.9-.5c.6-.3 1-.8 1.4-1.4.2-.4.4-1.1.5-2.1l3-2.2-.3 3.1c-.2 1.4-.6 2-.8 2.4A5.7 5.7 0 0 1 9.8 24c-1 .6-2 .8-3.3.8a7 7 0 0 1-3.4-.8 9 9 0 0 1-1.9-1.3L4 21.6z"/><path fill="#000" d="M10.5 4.3h2.7v6.8h-2.7z"/></g></svg>
